HIERARCHY
ROOT Hips
{
    OFFSET 0.000000 0.000000 0.000000
    CHANNELS 6 Xposition Yposition Zposition Zrotation Xrotation Yrotation
    JOINT Spine
    {
        OFFSET -0.000000 7.236184 0.000000
        CHANNELS 3 Zrotation Xrotation Yrotation
        JOINT Spine1
        {
            OFFSET -0.000000 20.420147 0.000000
            CHANNELS 3 Zrotation Xrotation Yrotation
            JOINT Neck
            {
                OFFSET -0.000000 20.336288 1.848754
                CHANNELS 3 Zrotation Xrotation Yrotation
                JOINT Head
                {
                    OFFSET -0.000000 12.354461 -1.764923
                    CHANNELS 3 Zrotation Xrotation Yrotation
                    End Site
                    {
                        OFFSET -0.000000 22.061537 0.000000
                    }
                }
            }
            JOINT LeftShoulder
            {
                OFFSET 3.573296 18.396038 -0.314103
                CHANNELS 3 Zrotation Xrotation Yrotation
                JOINT LeftArm
                {
                    OFFSET 10.880760 0.000000 0.000000
                    CHANNELS 3 Zrotation Xrotation Yrotation
                    JOINT LeftForeArm
                    {
                        OFFSET 27.185530 0.000000 0.000000
                        CHANNELS 3 Zrotation Xrotation Yrotation
                        JOINT LeftHand
                        {
                            OFFSET 27.825975 0.000000 0.000000
                            CHANNELS 3 Zrotation Xrotation Yrotation
                            End Site
                            {
                                OFFSET 13.236923 0.000000 0.000000
                            }
                        }
                    }
                }
            }
            JOINT RightShoulder
            {
                OFFSET -3.474926 18.396038 -0.314103
                CHANNELS 3 Zrotation Xrotation Yrotation
                JOINT RightArm
                {
                    OFFSET -10.880760 0.000000 0.000000
                    CHANNELS 3 Zrotation Xrotation Yrotation
                    JOINT RightForeArm
                    {
                        OFFSET -27.185530 0.000000 0.000000
                        CHANNELS 3 Zrotation Xrotation Yrotation
                        JOINT RightHand
                        {
                            OFFSET -27.825975 0.000000 0.000000
                            CHANNELS 3 Zrotation Xrotation Yrotation
                            End Site
                            {
                                OFFSET -13.236923 0.000000 0.000000
                            }
                        }
                    }
                }
            }
        }
    }
    JOINT LeftUpLeg
    {
        OFFSET 8.824615 0.000000 0.000000
        CHANNELS 3 Zrotation Xrotation Yrotation
        JOINT LeftLeg
        {
            OFFSET -0.000000 -35.111282 0.000000
            CHANNELS 3 Zrotation Xrotation Yrotation
            JOINT LeftFoot
            {
                OFFSET -0.000000 -42.324711 0.000000
                CHANNELS 3 Zrotation Xrotation Yrotation
                JOINT LeftToeBase
                {
                    OFFSET -0.000000 -5.735999 13.236923
                    CHANNELS 3 Zrotation Xrotation Yrotation
                    End Site
                    {
                        OFFSET -0.000000 0.000000 3.529846
                    }
                }
            }
        }
    }
    JOINT RightUpLeg
    {
        OFFSET -8.824615 0.000000 0.000000
        CHANNELS 3 Zrotation Xrotation Yrotation
        JOINT RightLeg
        {
            OFFSET -0.000000 -35.111282 0.000000
            CHANNELS 3 Zrotation Xrotation Yrotation
            JOINT RightFoot
            {
                OFFSET -0.000000 -42.324711 0.000000
                CHANNELS 3 Zrotation Xrotation Yrotation
                JOINT RightToeBase
                {
                    OFFSET -0.000000 -5.735999 13.236923
                    CHANNELS 3 Zrotation Xrotation Yrotation
                    End Site
                    {
                        OFFSET -0.000000 0.000000 3.529846
                    }
                }
            }
        }
    }
}
MOTION
Frames:    12
Frame Time:    0.008333
20.250626    90.349007    101.948593    37.537006    46.618343    -112.438774    2.371479    -3.575485    2.830450    17.276636    7.814806    1.567402    6.699210    29.020315    -20.051823    28.621975    3.524051    -16.971598    12.904819    -3.304595    -12.101207    -10.097010    11.171410    -56.278404    38.837795    -24.778519    -96.599922    62.916969    10.012341    -19.836351    4.649714    12.491273    -2.014917    33.494762    6.257237    20.406588    -5.657509    -11.412145    6.321495    -20.534603    -10.227348    -4.930101    60.805336    -38.875450    28.486057    1.652030    22.405506    12.768679    1.512075    -6.733148    -11.610703    1.504170    2.069944    -1.661206    -74.092941    -42.121513    -45.525154    12.152043    42.989784    -7.056316    3.989840    0.141567    -19.693434    1.985066    -0.923028    -2.149706    
20.188910    90.411415    102.030113    37.194016    46.348389    -112.307762    2.431293    -3.540414    2.724414    17.362240    7.797019    1.456974    6.702226    29.036213    -20.072918    28.578667    3.556717    -17.005619    12.961058    -3.366799    -12.224350    -9.935179    11.200155    -56.805321    39.313969    -23.549301    -93.828636    62.662197    9.512700    -19.929024    4.766936    12.612276    -2.164539    33.658112    6.889917    20.270262    -5.344040    -11.230945    6.656760    -19.510216    -10.129538    -4.707791    60.066822    -38.606503    27.609991    1.649896    22.170328    12.690251    1.089866    -6.870750    -11.697177    1.581843    1.996674    -1.747210    -74.963791    -42.614372    -46.754116    13.708327    45.928436    -7.976381    4.028870    0.317231    -19.552443    1.979100    -1.050265    -2.143625    
20.116222    90.474701    102.114342    36.849251    46.062031    -112.200325    2.492882    -3.511868    2.619587    17.442053    7.761667    1.350734    6.695971    29.049807    -20.088444    28.531628    3.578253    -17.032606    13.015516    -3.432847    -12.335639    -9.795854    11.207301    -57.309723    39.709461    -22.247385    -91.015739    62.430481    9.037853    -19.989368    4.879029    12.734178    -2.304022    33.813129    7.596692    20.129400    -5.021306    -11.049011    7.013389    -18.445658    -10.030943    -4.479085    59.309959    -38.300701    26.687071    1.634170    21.917213    12.622340    0.654132    -6.998542    -11.797170    1.650408    1.915065    -1.823198    -75.834892    -43.097363    -48.017357    15.431271    48.843197    -9.077338    4.094362    0.460660    -19.376341    1.966399    -1.144814    -2.130150    
20.032995    90.537910    102.201340    36.505566    45.759426    -112.118324    2.555295    -3.490515    2.515446    17.516239    7.710833    1.247870    6.680341    29.058891    -20.097561    28.482098    3.585841    -17.051146    13.067513    -3.502725    -12.435031    -9.690533    11.186980    -57.782688    40.003811    -20.877884    -88.199509    62.219238    8.596194    -20.021372    4.983465    12.855391    -2.431752    33.957214    8.383711    19.985830    -4.694004    -10.871737    7.390421    -17.363590    -9.934659    -4.251142    58.540531    -37.959400    25.738794    1.609643    21.647783    12.569719    0.218728    -7.112185    -11.908352    1.708983    1.830557    -1.888182    -76.703682    -43.567799    -49.311008    17.346737    51.711605    -10.381625    4.183603    0.569734    -19.174387    1.947298    -1.205925    -2.109639    
19.939474    90.600380    102.291428    36.163895    45.440632    -112.061913    2.618479    -3.476638    2.411184    17.585026    7.647052    1.147163    6.656759    29.062025    -20.100519    28.431065    3.576302    -17.060373    13.117382    -3.575805    -12.523327    -9.624708    11.136939    -58.219341    40.187794    -19.448713    -85.398239    62.023880    8.190815    -20.029163    5.078822    12.975382    -2.547440    34.089027    9.256344    19.841110    -4.365809    -10.703030    7.788503    -16.281992    -9.842914    -4.030467    57.762970    -37.584030    24.784410    1.579499    21.364164    12.537635    -0.203131    -7.208056    -12.026808    1.757530    1.747341    -1.942100    -77.569504    -44.024120    -50.634472    19.491470    54.521927    -11.922289    4.293194    0.645210    -18.954735    1.922797    -1.233895    -2.083178    
19.836157    90.661224    102.384499    35.824821    45.107067    -112.030037    2.681833    -3.470272    2.306219    17.649254    7.573728    1.047489    6.625654    29.057129    -20.097538    28.380219    3.548665    -17.060207    13.165328    -3.650767    -12.601005    -9.598361    11.058190    -58.616276    40.260406    -17.976049    -82.627762    61.838318    7.823678    -20.015940    5.163141    13.093279    -2.650507    34.208515    10.213671    19.696920    -4.041026    -10.545282    8.207149    -15.219870    -9.756855    -3.822675    56.984287    -37.177040    23.846298    1.545846    21.070517    12.529375    -0.597904    -7.283586    -12.146738    1.795057    1.668244    -1.983841    -78.428207    -44.463013    -51.980255    21.904615    57.253998    -13.739264    4.418481    0.689855    -18.723917    1.894469    -1.229260    -2.052475    
19.722519    90.719940    102.481255    35.484428    44.757538    -112.019867    2.746063    -3.470635    2.199145    17.709450    7.493423    0.946928    6.588012    29.043779    -20.089252    28.331091    3.501526    -17.050753    13.212034    -3.726880    -12.670049    -9.608564    10.952828    -58.975075    40.225586    -16.463545    -79.873276    61.655457    7.492534    -19.983587    5.236512    13.209941    -2.741658    34.316875    11.258887    19.553438    -3.720632    -10.398172    8.649314    -14.184087    -9.676158    -3.629975    56.203880    -36.737228    22.938734    1.509734    20.768150    12.545423    -0.955994    -7.337552    -12.261818    1.822553    1.593979    -2.014489    -79.281898    -44.884186    -53.349270    24.658871    59.909718    -15.903127    4.555793    0.707981    -18.484703    1.863926    -1.192735    -2.019282    
19.599016    90.775314    102.581337    35.141518    44.394806    -112.027885    2.810905    -3.476827    2.089586    17.765898    7.409883    0.844569    6.544860    29.020855    -20.076427    28.285488    3.435927    -17.032890    13.257997    -3.803074    -12.731215    -9.651619    10.825021    -59.294880    40.088547    -14.930228    -77.145378    61.470039    7.198128    -19.932940    5.298516    13.325032    -2.821518    34.414902    12.381200    19.413303    -3.408860    -10.261575    9.112344    -13.189754    -9.600347    -3.454855    55.429119    -36.267899    22.085123    1.471854    20.462246    12.583007    -1.264369    -7.369691    -12.362087    1.844284    1.523198    -2.038760    -80.122101    -45.282127    -54.724621    27.815575    62.459030    -18.480459    4.699703    0.703563    -18.241007    1.832298    -1.125990    -1.984834    
19.466253    90.826202    102.684235    34.794258    44.022343    -112.049034    2.876431    -3.487602    1.976949    17.818716    7.326813    0.739286    6.497257    28.988670    -20.059940    28.244938    3.354015    -17.007711    13.303014    -3.877967    -12.786045    -9.722604    10.679590    -59.575935    39.855774    -13.394322    -74.453377    61.277977    6.940253    -19.863329    5.349781    13.437861    -2.890048    34.504120    13.563938    19.277594    -3.109217    -10.134325    9.592285    -12.248549    -9.528402    -3.298237    54.665806    -35.773640    21.305984    1.433762    20.158136    12.636165    -1.512894    -7.381427    -12.437528    1.866753    1.452660    -2.063852    -80.939682    -45.651299    -56.086830    31.444695    64.870705    -21.546902    4.844475    0.680502    -17.996601    1.801232    -1.030629    -1.950924    
19.323050    90.872200    102.790817    34.436565    43.638988    -112.078560    2.943791    -3.501983    1.859385    17.868624    7.246350    0.628708    6.446007    28.947653    -20.040649    28.209490    3.257267    -16.976439    13.347983    -3.951326    -12.836494    -9.818995    10.518480    -59.823174    39.528191    -11.852798    -71.771950    61.074402    6.714839    -19.771763    5.391707    13.549555    -2.949065    34.587555    14.803570    19.146336    -2.821022    -10.013906    10.090273    -11.358695    -9.458732    -3.158168    53.909409    -35.253147    20.609835    1.396115    19.856888    12.699866    -1.696043    -7.375034    -12.481948    1.894753    1.379109    -2.095079    -81.735016    -45.990879    -57.431492    35.679623    67.138916    -25.234564    4.985984    0.642093    -17.751049    1.771723    -0.908737    -1.918637    
19.170013    90.912392    102.900574    34.067280    43.248482    -112.111359    3.012738    -3.518971    1.736494    17.916340    7.171196    0.512045    6.392949    28.898903    -20.019835    28.178705    3.149019    -16.940807    13.392475    -4.021631    -12.884537    -9.936844    10.345316    -60.037838    39.108036    -10.321846    -69.110840    60.858013    6.520434    -19.654530    5.425837    13.659818    -2.999795    34.666946    16.079420    19.020901    -2.547502    -9.899314    10.599989    -10.528962    -9.390527    -3.034710    53.164238    -34.712337    20.012089    1.360851    19.564062    12.765911    -1.809192    -7.353986    -12.489718    1.930683    1.300415    -2.135101    -82.498077    -46.295650    -58.735287    40.622864    69.221451    -29.651371    5.118516    0.590842    -17.507669    1.744921    -0.763116    -1.889231    
19.007223    90.946297    103.013504    33.684662    42.852867    -112.143105    3.082962    -3.537623    1.607695    17.963177    7.102768    0.388430    6.339503    28.842989    -19.998602    28.151918    3.032865    -16.902880    13.437032    -4.088247    -12.931510    -10.074269    10.163061    -60.223091    38.595886    -8.811404    -66.468796    60.625729    6.353956    -19.507832    5.453753    13.767900    -3.044853    34.744717    17.376335    18.901527    -2.290082    -9.789408    11.117105    -9.763184    -9.322964    -2.927471    52.430588    -34.155659    19.519468    1.329070    19.283670    12.828526    -1.851932    -7.322262    -12.459715    1.974392    1.215068    -2.183765    -83.222862    -46.562912    -59.980583    46.392376    71.080360    -34.917641    5.237595    0.528697    -17.268179    1.722557    -0.598684    -1.864593    
